HIERARCHY
ROOT Hips
{
 OFFSET 0.000000 0.000000 0.000000
 CHANNELS 6 Xposition Yposition Zposition Yrotation Xrotation Zrotation
 JOINT Chest
 {
  OFFSET 0.000000 9.581000 -0.001100
  CHANNELS 3 Yrotation Xrotation Zrotation
  JOINT Chest2
  {
   OFFSET 0.000000 9.561100 0.002200
   CHANNELS 3 Yrotation Xrotation Zrotation
   JOINT Chest3
   {
    OFFSET 0.000000 9.521100 0.000000
    CHANNELS 3 Yrotation Xrotation Zrotation
    JOINT Chest4
    {
     OFFSET 0.000000 9.511400 0.000000
     CHANNELS 3 Yrotation Xrotation Zrotation
     JOINT Neck
     {
      OFFSET 0.000000 14.375100 0.000000
      CHANNELS 3 Yrotation Xrotation Zrotation
      JOINT Head
      {
       OFFSET 0.000000 8.901200 0.004600
       CHANNELS 3 Yrotation Xrotation Zrotation
       End Site
       {
        OFFSET 0.000000 16.962200 0.002400
       }
      }
     }
     JOINT RightCollar
     {
      OFFSET -2.920100 9.518800 0.000000
      CHANNELS 3 Yrotation Xrotation Zrotation
      JOINT RightShoulder
      {
       OFFSET -13.664500 0.000000 0.000000
       CHANNELS 3 Yrotation Xrotation Zrotation
       JOINT RightElbow
       {
        OFFSET 0.000000 -29.999200 0.000000
        CHANNELS 3 Yrotation Xrotation Zrotation
        JOINT RightWrist
        {
         OFFSET 0.000000 -24.253600 0.000000
         CHANNELS 3 Yrotation Xrotation Zrotation
         End Site
         {
          OFFSET 0.000000 -17.918900 0.000000
         }
        }
       }
      }
     }
     JOINT LeftCollar
     {
      OFFSET 2.920100 9.518800 0.000000
      CHANNELS 3 Yrotation Xrotation Zrotation
      JOINT LeftShoulder
      {
       OFFSET 13.664500 0.000000 0.000000
       CHANNELS 3 Yrotation Xrotation Zrotation
       JOINT LeftElbow
       {
        OFFSET 0.000000 -29.999200 0.000000
        CHANNELS 3 Yrotation Xrotation Zrotation
        JOINT LeftWrist
        {
         OFFSET 0.000000 -24.253600 0.000000
         CHANNELS 3 Yrotation Xrotation Zrotation
         End Site
         {
          OFFSET 0.000000 -17.918900 0.000000
         }
        }
       }
      }
     }
    }
   }
  }
 }
 JOINT RightHip
 {
  OFFSET -7.797300 0.005300 0.000500
  CHANNELS 3 Yrotation Xrotation Zrotation
  JOINT RightKnee
  {
   OFFSET 0.000000 -40.663400 -0.000500
   CHANNELS 3 Yrotation Xrotation Zrotation
   JOINT RightAnkle
   {
    OFFSET 0.000000 -39.523700 -0.000900
    CHANNELS 3 Yrotation Xrotation Zrotation
    JOINT RightToe
    {
     OFFSET 0.000000 -6.418000 14.485300
     CHANNELS 3 Yrotation Xrotation Zrotation
     End Site
     {
      OFFSET 0.000000 -1.465200 6.326400
     }
    }
   }
  }
 }
 JOINT LeftHip
 {
  OFFSET 7.797300 0.005300 0.000500
  CHANNELS 3 Yrotation Xrotation Zrotation
  JOINT LeftKnee
  {
   OFFSET 0.000000 -40.663400 -0.000500
   CHANNELS 3 Yrotation Xrotation Zrotation
   JOINT LeftAnkle
   {
    OFFSET 0.000000 -39.523700 -0.000900
    CHANNELS 3 Yrotation Xrotation Zrotation
    JOINT LeftToe
    {
     OFFSET 0.000000 -6.418000 14.485300
     CHANNELS 3 Yrotation Xrotation Zrotation
     End Site
     {
      OFFSET 0.000000 -1.465200 6.326400
     }
    }
   }
  }
 }
}
MOTION
Frames: 9
Frame Time: 0.008333
-15.323513 126.875805 16.548389 -179.080611 -45.873173 -5.081374 2.781267 24.411213 4.060363 0.288969 3.878809 0.563879 0.539088 6.105761 0.856466 2.154875 20.312613 3.235813 4.332255 16.998866 -1.010547 4.845335 -7.748392 -2.068947 -1.260883 2.099440 3.636200 -10.449451 -5.041967 -10.748323 -142.288539 -82.006277 175.131059 21.958960 25.922133 14.046285 -13.065683 -4.174003 1.085774 -12.683562 -24.798023 19.757619 79.166421 -67.960798 -122.016614 -6.217314 -15.275484 -5.186235 -18.904817 -10.156199 2.239317 22.445432 81.231941 36.286692 24.841683 -24.267436 16.469665 -0.000042 -0.004197 -0.000018 13.165767 -14.635446 -7.242340 5.566544 64.169483 -10.392854 2.018760 -3.325959 15.720931 -0.008839 0.003411 -0.003916
-15.321394 126.875617 16.552954 -179.081020 -45.905010 -5.052572 2.790570 24.406742 4.021611 0.294454 3.871867 0.559488 0.541050 6.109525 0.845794 2.167217 20.311890 3.206606 4.189321 16.860446 -0.795408 4.636007 -7.910541 -1.804666 -1.383021 2.076415 3.612122 -10.347071 -5.101557 -10.662725 -142.717016 -82.073223 175.570879 21.971432 25.914444 14.048672 -13.095357 -4.296624 1.152398 -12.276857 -25.196662 20.140010 79.769633 -69.454942 -121.594345 -6.565852 -15.859505 -4.996817 -18.887335 -10.142409 2.217068 22.430636 81.238212 36.269771 24.836108 -24.266817 16.472183 -0.000521 -0.005224 -0.000231 13.174647 -14.594026 -7.254029 5.612283 64.154536 -10.364424 2.005248 -3.313515 15.724129 -0.016488 0.001144 -0.007305
-15.318591 126.876092 16.556899 -179.085479 -45.941506 -5.022541 2.802765 24.410578 3.983659 0.298415 3.867205 0.554486 0.533773 6.128256 0.852908 2.179555 20.298277 3.153578 4.037689 16.707415 -0.567788 4.414929 -8.087767 -1.525881 -1.496853 2.039228 3.586597 -10.270127 -5.146092 -10.594394 -143.118586 -82.112225 175.999686 21.978852 25.898823 14.055861 -13.135482 -4.435852 1.226302 -11.816807 -25.618827 20.538914 79.978158 -70.979397 -120.769695 -6.859041 -16.478688 -4.657578 -18.868782 -10.126194 2.202720 22.550405 81.235516 36.369184 24.819715 -24.265364 16.474175 0.000140 -0.003888 0.000062 13.186283 -14.542500 -7.249356 5.629077 64.136840 -10.373650 2.003605 -3.306653 15.708741 -0.018132 0.001644 -0.008034
-15.318227 126.879281 16.557948 -179.089978 -46.000244 -4.976757 2.809102 24.440222 3.929050 0.319671 3.834759 0.523246 0.512764 6.173045 0.887145 2.182593 20.299773 3.136960 3.877965 16.534297 -0.373911 4.192417 -8.274085 -1.237957 -1.606615 1.973538 3.517919 -10.213449 -5.171046 -10.542345 -143.398346 -82.121940 176.328304 21.982906 25.883227 14.070029 -13.183741 -4.614985 1.267239 -11.317160 -26.058093 20.952739 79.568135 -72.489234 -119.328191 -7.091223 -17.131325 -4.209107 -18.847909 -10.089103 2.155383 22.578969 81.236920 36.386013 24.833096 -24.256515 16.469005 -0.001189 -0.003599 -0.000527 13.204214 -14.453165 -7.228365 5.587403 64.108723 -10.451666 1.966792 -3.290937 15.722270 -0.007877 0.003113 -0.003490
-15.313715 126.877140 16.564510 -179.085262 -46.010220 -4.961630 2.809753 24.428945 3.900517 0.317137 3.841690 0.524390 0.523653 6.157944 0.863719 2.185624 20.294945 3.080056 3.736253 16.373362 -0.111921 3.976858 -8.462158 -0.948813 -1.722253 1.908511 3.510630 -10.168135 -5.169801 -10.509130 -143.514617 -82.105136 176.511925 21.984331 25.870977 14.092057 -13.257241 -4.778748 1.365602 -10.804104 -26.506956 21.382806 78.255711 -73.942506 -116.990895 -7.257859 -17.818387 -3.690519 -18.845479 -10.090086 2.153280 22.620969 81.237022 36.412663 24.819782 -24.259828 16.476160 -0.007684 -0.006757 -0.003404 13.205474 -14.433221 -7.224382 5.619477 64.094275 -10.444573 1.955696 -3.283474 15.716613 -0.014192 0.004681 -0.006289
-15.314630 126.877656 16.567849 -179.079886 -46.043335 -4.915265 2.798174 24.435144 3.833685 0.313870 3.855491 0.530100 0.532746 6.142426 0.839019 2.180967 20.291982 3.022771 3.606689 16.220494 0.144288 3.775956 -8.639552 -0.669708 -1.833768 1.820485 3.502552 -10.123994 -5.142415 -10.490217 -143.461961 -82.067652 176.536196 21.983294 25.858540 14.120808 -13.336117 -4.960088 1.467298 -10.314439 -26.959819 21.833192 75.733326 -75.293758 -113.441871 -7.356546 -18.522773 -3.121674 -18.837296 -10.081587 2.128921 22.640307 81.242591 36.406070 24.790711 -24.271232 16.483593 -0.019770 -0.017217 -0.008757 13.213998 -14.382790 -7.245536 5.633578 64.081671 -10.451401 1.975688 -3.281994 15.672874 -0.028353 0.005024 -0.012563
-15.313178 126.881386 16.568249 -179.076934 -46.100146 -4.882966 2.795757 24.456151 3.781720 0.321804 3.833272 0.502200 0.532013 6.172648 0.851608 2.173388 20.299758 3.006049 3.476702 16.077049 0.346524 3.594182 -8.790214 -0.412116 -1.947015 1.704178 3.453392 -10.071143 -5.099829 -10.480780 -143.276158 -82.013469 176.427579 21.978709 25.845713 14.154266 -13.419807 -5.175310 1.540711 -9.863440 -27.420949 22.304005 71.706456 -76.486891 -108.370757 -7.395769 -19.222053 -2.517029 -18.830678 -10.045121 2.101627 22.615862 81.253190 36.359415 24.792886 -24.262958 16.472948 -0.009823 -0.009942 -0.004351 13.217058 -14.308624 -7.234642 5.592754 64.068317 -10.514045 1.971335 -3.270466 15.642382 -0.013197 0.002495 -0.005847
-15.311671 126.881809 16.571652 -179.067989 -46.127330 -4.856877 2.779691 24.452116 3.737989 0.320596 3.831124 0.496010 0.533764 6.177864 0.831692 2.162595 20.289996 2.982794 3.369272 15.974266 0.540007 3.433259 -8.904667 -0.183614 -2.058731 1.605369 3.408099 -10.006902 -5.058363 -10.479509 -143.008912 -81.945266 176.227615 21.970156 25.829692 14.191224 -13.509207 -5.379088 1.626457 -9.447085 -27.896183 22.786650 65.948489 -77.459954 -101.532466 -7.387975 -19.898867 -1.894817 -18.837124 -10.037070 2.096246 22.651853 81.256413 36.359270 24.767299 -24.264888 16.484036 -0.012556 -0.013029 -0.005562 13.214237 -14.268196 -7.224720 5.608852 64.055866 -10.534520 1.955708 -3.255339 15.622346 -0.012969 0.000900 -0.005746
-15.308108 126.882103 16.575169 -179.066278 -46.151059 -4.840210 2.773533 24.458955 3.716909 0.317616 3.807575 0.491394 0.532143 6.182572 0.811324 2.143900 20.263437 2.949731 3.288974 15.911328 0.720724 3.298889 -8.984182 0.010784 -2.171209 1.533717 3.365966 -9.935809 -5.027230 -10.490455 -142.706261 -81.862902 175.979902 21.955393 25.807863 14.232345 -13.603022 -5.569495 1.720912 -9.065894 -28.386603 23.272857 58.393523 -78.143846 -92.847423 -7.340087 -20.540674 -1.273422 -18.856796 -10.033473 2.133927 22.556130 81.274398 36.205752 24.745218 -24.259950 16.489578 -0.002841 -0.009564 -0.001258 13.200789 -14.231825 -7.163971 5.576265 64.045888 -10.633973 1.920318 -3.241931 15.604847 0.001460 0.001932 0.000647
